<?xml version="1.0" standalone="no"?>
<!DOCTYPE svg PUBLIC "-//W3C//DTD SVG 20010904//EN"
 "http://www.w3.org/TR/2001/REC-SVG-20010904/DTD/svg10.dtd">
<svg version="1.0" xmlns="http://www.w3.org/2000/svg"
 width="512.000000pt" height="512.000000pt" viewBox="0 0 512.000000 512.000000"
 preserveAspectRatio="xMidYMid meet">

<g transform="translate(0.000000,512.000000) scale(0.100000,-0.100000)"
fill="#000000" stroke="none">
<path d="M2555 4945 c-167 -19 -215 -27 -221 -36 -3 -5 -20 -9 -39 -9 -19 0
-37 -4 -40 -10 -3 -5 -22 -10 -41 -10 -19 0 -34 -4 -34 -10 0 -5 -9 -10 -20
-10 -11 0 -53 -16 -94 -35 -41 -19 -82 -35 -91 -35 -8 0 -15 -4 -15 -10 0 -5
-9 -10 -20 -10 -11 0 -20 -3 -20 -8 0 -4 -15 -13 -32 -21 -18 -8 -47 -25 -64
-38 -17 -13 -36 -23 -42 -23 -7 0 -12 -4 -12 -10 0 -5 -7 -10 -15 -10 -8 0
-15 -4 -15 -10 0 -5 -6 -10 -13 -10 -7 0 -22 -8 -33 -18 -10 -10 -37 -31 -59
-47 -22 -16 -47 -38 -56 -47 -9 -10 -19 -18 -21 -18 -3 0 -31 -25 -63 -55 -31
-30 -61 -55 -66 -55 -5 0 -9 -4 -9 -10 0 -5 -17 -28 -37 -49 -51 -52 -82 -89
-118 -136 -16 -22 -33 -41 -37 -43 -4 -2 -8 -10 -8 -18 0 -8 -4 -14 -10 -14
-5 0 -10 -4 -10 -10 0 -5 -20 -41 -45 -79 -25 -38 -45 -77 -45 -85 0 -9 -4
-16 -10 -16 -5 0 -10 -9 -10 -20 0 -11 -4 -20 -10 -20 -5 0 -10 -8 -10 -18 0
-10 -4 -22 -9 -27 -4 -6 -17 -35 -27 -65 -10 -30 -22 -57 -25 -60 -7 -6 -19
-51 -26 -102 -3 -21 -9 -38 -14 -38 -5 0 -9 -22 -9 -48 0 -26 -4 -52 -9 -57
-30 -33 -30 -597 0 -629 5 -6 9 -34 9 -63 0 -29 4 -53 9 -53 5 0 12 -17 15
-37 16 -91 19 -103 26 -103 5 0 12 -15 15 -32 9 -39 46 -122 57 -126 4 -2 8
-10 8 -17 0 -16 70 -149 82 -153 4 -2 8 -10 8 -18 0 -8 5 -14 10 -14 6 0 10
-8 10 -18 0 -10 9 -24 20 -32 11 -8 20 -18 20 -23 0 -4 31 -46 70 -91 69 -82
85 -116 55 -116 -8 0 -15 -4 -15 -8 0 -5 -12 -15 -27 -23 -55 -29 -253 -243
-253 -274 0 -4 -16 -29 -35 -55 -19 -26 -35 -53 -35 -59 0 -6 -4 -11 -10 -11
-5 0 -10 -7 -10 -15 0 -8 -4 -15 -10 -15 -5 0 -10 -9 -10 -20 0 -11 -4 -20
-10 -20 -5 0 -10 -4 -10 -10 0 -8 -34 -65 -57 -95 -5 -5 -15 -23 -23 -40 -8
-16 -17 -32 -20 -35 -3 -3 -16 -25 -29 -50 -13 -25 -30 -52 -37 -61 -8 -8 -14
-23 -14 -32 0 -9 -5 -19 -10 -22 -6 -3 -10 -15 -10 -26 0 -10 -4 -19 -10 -19
-5 0 -10 -11 -10 -25 0 -14 -4 -25 -10 -25 -5 0 -10 -13 -10 -30 0 -16 -5 -30
-11 -30 -7 0 -9 -40 -6 -122 5 -130 13 -188 28 -188 5 0 9 -8 9 -18 0 -10 9
-24 20 -32 11 -8 20 -19 20 -24 0 -11 89 -96 101 -96 5 0 9 -4 9 -8 0 -5 16
-14 35 -22 19 -8 35 -17 35 -20 0 -5 31 -20 105 -50 11 -4 33 -13 48 -19 15
-6 36 -11 46 -11 36 0 46 -26 32 -83 -43 -173 -44 -197 -12 -197 26 0 41 21
41 56 0 18 5 36 10 39 5 3 10 22 10 41 0 19 4 34 9 34 6 0 11 19 13 42 l3 43
185 2 c102 2 194 7 205 13 11 5 45 11 75 14 126 12 165 18 174 27 6 5 20 9 33
9 13 0 56 9 96 21 39 12 84 23 100 26 15 3 30 9 33 14 3 5 16 9 30 9 13 0 24
5 24 10 0 12 122 13 136 1 5 -5 27 -11 49 -14 22 -3 81 -17 130 -32 50 -15
105 -30 123 -32 18 -3 35 -9 38 -14 3 -5 34 -9 70 -9 l64 0 0 -150 c0 -138 1
-150 18 -150 36 0 42 20 42 141 0 147 6 179 33 179 20 0 58 10 121 33 36 13
96 72 97 95 0 9 0 43 -1 75 -1 60 15 127 31 127 18 0 10 104 -11 138 -29 48
-25 89 20 177 41 80 48 109 30 120 -5 3 -10 17 -10 31 0 13 -4 24 -10 24 -5 0
-10 11 -10 25 0 14 -4 25 -8 25 -12 0 -32 46 -32 74 0 28 34 66 60 66 10 0 22
5 25 10 3 6 26 10 50 10 24 0 47 5 50 10 3 6 22 10 41 10 19 0 34 5 34 10 0 6
11 10 24 10 14 0 28 5 31 10 3 6 19 10 36 10 16 0 29 5 29 10 0 6 4 10 10 10
15 0 125 53 128 62 2 4 12 8 23 8 10 0 19 5 19 10 0 6 8 10 18 10 9 1 35 14
57 30 22 16 58 38 80 49 22 10 51 29 65 41 14 12 44 35 68 52 23 16 42 33 42
38 0 6 6 10 13 10 23 0 242 225 296 303 8 12 21 26 28 30 7 4 13 14 13 22 0 8
9 20 20 27 11 7 20 21 20 30 0 10 5 18 10 18 6 0 10 4 10 10 0 5 16 34 35 64
19 30 35 62 35 71 0 8 5 15 10 15 6 0 10 9 10 20 0 11 5 20 10 20 6 0 10 7 10
15 0 8 4 23 9 33 5 9 13 28 18 42 6 14 18 42 27 63 9 21 16 49 16 62 0 13 5
27 10 30 6 3 10 22 10 41 0 21 4 33 10 29 6 -4 10 15 10 49 0 31 4 56 9 56 10
0 24 186 23 315 -1 140 -13 295 -23 295 -5 0 -9 27 -9 61 0 37 -4 58 -10 54
-6 -3 -10 4 -10 16 0 29 -37 144 -61 191 -5 10 -9 24 -9 32 0 17 -42 100 -52
104 -5 2 -8 10 -8 18 0 7 -16 38 -35 68 -19 30 -35 60 -35 66 0 5 -4 10 -10
10 -5 0 -10 7 -10 15 0 8 -4 15 -9 15 -5 0 -13 9 -16 20 -3 11 -12 26 -19 32
-6 7 -25 31 -41 53 -49 64 -239 265 -252 265 -3 0 -18 14 -33 30 -15 17 -31
30 -34 30 -7 0 -48 33 -83 68 -13 12 -30 22 -38 22 -8 0 -15 3 -15 8 0 4 -15
13 -32 21 -18 8 -35 17 -38 20 -16 19 -127 81 -145 81 -8 0 -15 5 -15 10 0 6
-8 10 -18 10 -10 0 -22 4 -27 8 -17 15 -136 62 -156 62 -10 0 -19 5 -19 10 0
6 -18 10 -40 10 -22 0 -40 4 -40 9 0 5 -15 11 -32 14 -18 3 -55 11 -83 16
-182 38 -455 49 -660 26z m415 -54 c0 -5 39 -12 88 -15 122 -7 192 -17 192
-26 0 -4 17 -10 38 -13 76 -11 192 -47 192 -59 0 -5 7 -8 15 -8 8 0 30 -9 50
-20 20 -11 44 -20 55 -20 11 0 20 -4 20 -8 0 -5 27 -21 60 -37 33 -16 60 -32
60 -35 0 -3 16 -12 35 -20 19 -8 35 -16 35 -20 0 -3 15 -14 33 -25 17 -10 43
-29 57 -42 14 -13 33 -26 43 -29 9 -3 17 -10 17 -15 0 -5 5 -9 11 -9 5 0 30
-20 55 -45 24 -25 48 -45 54 -45 5 0 10 -5 10 -10 0 -6 16 -25 35 -43 19 -17
35 -38 35 -44 0 -7 5 -13 11 -13 15 0 39 -26 32 -34 -4 -3 0 -6 8 -6 12 0 59
-60 59 -75 0 -3 9 -16 20 -28 44 -47 70 -82 70 -94 0 -7 5 -13 10 -13 6 0 10
-7 10 -15 0 -8 5 -15 10 -15 6 0 10 -9 10 -19 0 -11 3 -21 8 -23 9 -4 62 -113
62 -127 0 -6 5 -11 10 -11 6 0 10 -13 10 -30 0 -16 5 -30 10 -30 6 0 10 -8 10
-18 0 -10 4 -22 9 -27 4 -6 16 -41 26 -80 9 -38 21 -79 25 -90 16 -38 42 -261
43 -375 2 -171 -43 -473 -76 -506 -4 -4 -7 -20 -7 -35 0 -15 -4 -31 -10 -34
-5 -3 -10 -17 -10 -31 0 -13 -4 -24 -10 -24 -5 0 -10 -11 -10 -25 0 -14 -4
-25 -10 -25 -5 0 -10 -9 -10 -19 0 -11 -3 -21 -8 -23 -4 -1 -25 -39 -47 -83
-22 -44 -47 -89 -57 -99 -10 -11 -18 -25 -18 -31 0 -6 -11 -22 -25 -35 -14
-13 -25 -28 -25 -32 0 -5 -6 -15 -12 -22 -7 -7 -26 -31 -43 -52 -52 -66 -267
-274 -285 -274 -4 0 -10 -3 -12 -7 -5 -14 -96 -83 -107 -83 -6 0 -11 -4 -11
-10 0 -5 -7 -10 -15 -10 -8 0 -15 -4 -15 -9 0 -5 -16 -15 -35 -22 -19 -7 -35
-16 -35 -19 0 -4 -28 -20 -62 -36 -35 -16 -64 -32 -66 -36 -2 -5 -10 -8 -18
-8 -8 0 -22 -4 -32 -9 -27 -15 -85 -38 -112 -46 -14 -4 -38 -13 -55 -20 -60
-24 -102 -35 -138 -35 -20 0 -37 -4 -37 -10 0 -16 -32 -11 -46 8 -7 9 -14 24
-14 34 0 24 -65 86 -97 93 -15 4 -38 11 -51 16 -13 5 -63 9 -112 9 l-90 0 1
182 c0 111 -4 185 -11 192 -5 5 -10 16 -10 23 0 21 -53 127 -72 144 -10 9 -18
24 -18 33 0 9 -8 16 -20 16 -11 0 -20 3 -20 8 0 15 -56 32 -109 32 -56 0 -81
-13 -118 -60 -16 -21 -63 -200 -63 -242 0 -19 -4 -38 -9 -44 -5 -5 -12 -38
-15 -74 -14 -157 -18 -190 -27 -190 -5 0 -9 -24 -9 -52 0 -35 -6 -61 -18 -76
-17 -22 -20 -23 -53 -9 -70 31 -142 57 -155 57 -8 0 -14 5 -14 10 0 6 -11 10
-25 10 -14 0 -25 5 -25 10 0 6 -9 10 -20 10 -11 0 -20 5 -20 10 0 6 -9 10 -20
10 -11 0 -20 3 -20 8 0 4 -9 12 -19 17 -11 6 -35 18 -55 29 -20 10 -36 22 -36
27 0 5 -9 9 -20 9 -11 0 -20 5 -20 10 0 6 -4 10 -10 10 -9 0 -42 25 -76 57 -7
7 -15 13 -19 13 -4 0 -12 6 -19 12 -7 7 -48 45 -91 83 -43 39 -85 78 -94 89
-9 10 -28 31 -42 46 -14 16 -39 45 -55 65 -16 21 -41 52 -56 69 -16 17 -34 43
-40 58 -7 16 -16 28 -20 28 -5 0 -8 7 -8 15 0 8 -3 15 -8 15 -4 0 -13 15 -21
32 -8 18 -18 35 -21 38 -12 8 -60 108 -60 125 0 8 -4 15 -10 15 -5 0 -10 11
-10 25 0 14 -4 25 -9 25 -5 0 -11 10 -14 23 -12 53 -50 173 -57 182 -4 6 -11
35 -14 65 -4 30 -11 98 -17 150 -15 128 -15 284 0 405 6 55 14 123 17 150 3
28 9 55 14 60 4 6 15 37 24 70 10 33 22 68 27 77 5 10 9 27 9 38 0 11 5 20 10
20 6 0 10 9 10 19 0 25 75 173 83 164 4 -3 7 0 7 8 0 20 23 69 33 69 4 0 7 7
7 15 0 8 4 15 9 15 5 0 12 8 15 18 4 9 20 33 36 52 49 57 50 59 50 65 0 3 15
21 33 40 17 19 37 40 43 47 24 28 193 188 199 188 3 0 20 13 38 30 18 16 38
30 45 30 6 0 12 4 12 9 0 10 105 81 120 81 5 0 10 4 10 8 0 5 29 21 65 37 36
16 65 33 65 37 0 4 9 8 19 8 11 0 23 5 26 10 3 6 15 10 26 10 10 0 19 5 19 10
0 6 8 10 18 10 10 0 22 3 26 7 12 12 100 43 123 43 12 0 25 5 28 10 3 6 19 10
35 10 16 0 32 5 35 10 3 6 26 10 50 10 24 0 47 5 50 10 3 6 44 10 91 10 49 0
84 4 84 10 0 6 67 10 180 10 104 0 180 -4 180 -9z m-369 -2708 c12 -10 29 -26
38 -37 9 -10 22 -24 29 -31 6 -8 12 -25 12 -38 0 -14 5 -27 11 -29 31 -10 53
-265 33 -393 -5 -39 -10 -45 -30 -45 -12 0 -26 -4 -29 -10 -3 -5 -21 -10 -38
-10 -18 0 -42 -8 -55 -18 -20 -15 -21 -20 -9 -36 13 -18 18 -18 68 -7 30 7 75
15 102 18 26 3 47 9 47 14 0 12 185 12 208 0 9 -5 31 -14 47 -20 31 -12 55
-49 55 -85 0 -27 -22 -86 -32 -86 -4 0 -8 -18 -8 -40 0 -22 5 -40 10 -40 6 0
10 -11 10 -25 0 -14 4 -25 8 -25 5 0 21 -27 36 -60 l28 -60 -28 -47 c-75 -131
-78 -151 -37 -230 26 -48 27 -55 14 -85 -7 -18 -16 -45 -18 -60 -3 -16 -9 -28
-14 -28 -5 0 -9 -35 -9 -77 0 -84 -14 -113 -57 -113 -13 0 -31 -4 -41 -9 -32
-18 -110 -31 -178 -31 -74 0 -184 19 -184 32 0 4 -18 8 -40 8 -22 0 -40 5 -40
10 0 6 -13 10 -29 10 -17 0 -32 4 -35 9 -3 4 -25 11 -48 14 -24 4 -65 11 -93
17 -40 8 -61 7 -105 -6 -30 -8 -63 -20 -72 -25 -10 -5 -27 -9 -38 -9 -11 0
-20 -4 -20 -10 0 -5 -21 -10 -46 -10 -27 0 -43 -4 -39 -10 4 -6 -5 -10 -19
-10 -26 0 -47 -4 -181 -34 -38 -9 -87 -16 -107 -16 -20 0 -40 -4 -43 -10 -4
-6 -88 -10 -221 -10 -136 0 -214 4 -214 10 0 6 -13 10 -30 10 -26 0 -70 15
-122 41 -10 5 -25 9 -33 9 -9 0 -13 5 -10 10 4 6 -5 10 -19 10 -14 0 -26 3
-26 8 0 4 -14 13 -31 21 -62 27 -169 153 -169 198 0 7 -4 13 -10 13 -6 0 -10
42 -10 105 0 63 4 105 10 105 6 0 10 16 10 35 0 19 5 35 10 35 6 0 10 8 10 18
0 33 153 312 172 312 4 0 8 9 8 20 0 11 4 20 8 20 5 0 14 16 22 35 8 19 17 35
22 35 4 0 8 9 8 19 0 10 6 21 13 24 6 2 23 28 37 56 14 28 28 51 33 51 4 0 7
7 7 15 0 8 5 15 10 15 6 0 10 6 10 13 0 14 30 53 78 103 17 18 32 36 32 39 0
8 27 35 35 35 3 0 17 10 30 23 65 59 75 67 85 67 5 0 10 5 10 10 0 6 12 10 26
10 26 0 54 -20 54 -39 0 -6 6 -11 13 -11 6 0 26 -15 44 -32 17 -18 37 -38 45
-43 7 -6 32 -25 54 -43 23 -17 46 -32 51 -32 5 0 15 -9 23 -20 8 -11 19 -20
24 -20 5 0 29 -15 55 -33 25 -18 96 -56 156 -85 61 -30 123 -60 138 -68 16 -8
37 -14 47 -14 10 0 22 -4 25 -10 3 -5 19 -10 36 -10 16 0 29 -4 29 -10 0 -5 7
-10 15 -10 8 0 15 -3 15 -6 0 -14 -33 -74 -41 -74 -5 0 -9 -6 -9 -13 0 -17
-115 -87 -143 -87 -13 0 -28 -5 -33 -10 -7 -7 -49 -10 -105 -8 l-94 3 3 35 c2
19 7 40 12 45 9 12 21 69 23 115 2 31 -1 35 -25 38 -25 3 -28 0 -28 -27 0 -17
-4 -39 -9 -49 -5 -9 -17 -44 -28 -77 l-18 -60 -180 -3 c-99 -1 -184 -7 -189
-12 -6 -6 -38 -10 -73 -10 -35 0 -63 -4 -63 -10 0 -5 -21 -10 -46 -10 -49 0
-78 -19 -68 -43 8 -23 24 -26 79 -15 28 5 75 11 105 14 30 3 64 10 75 15 20
10 89 9 489 -6 98 -4 153 -2 159 4 6 6 24 11 39 11 15 0 28 5 28 10 0 6 9 10
20 10 33 0 160 121 160 153 0 9 5 17 10 17 6 0 10 11 10 25 0 14 4 25 9 25 5
0 11 17 14 38 3 20 11 62 16 92 6 30 15 87 21 125 5 39 14 90 19 115 5 25 15
87 22 138 7 50 17 92 21 92 4 0 8 18 8 40 0 22 5 40 10 40 6 0 10 7 10 15 0 9
10 27 23 40 27 29 87 33 118 8z"/>
<path d="M2680 3930 c0 -5 -13 -10 -30 -10 -16 0 -30 -4 -30 -10 0 -5 -6 -10
-13 -10 -7 0 -21 -12 -32 -27 -11 -14 -24 -31 -30 -37 -56 -60 -89 -132 -73
-159 10 -19 73 -24 83 -7 7 12 165 14 165 2 0 -4 15 -14 33 -21 17 -8 70 -52
115 -98 46 -46 100 -96 120 -111 21 -15 44 -34 52 -42 26 -26 84 -67 105 -73
30 -9 59 17 51 47 -3 13 -13 31 -21 40 -8 8 -15 19 -15 24 0 5 -9 17 -19 26
-10 9 -31 37 -47 62 -15 24 -32 44 -36 44 -4 0 -8 5 -8 10 0 6 -5 16 -10 23
-39 47 -50 62 -55 78 -4 11 -10 19 -14 19 -4 0 -13 16 -21 35 -8 19 -17 35
-22 35 -4 0 -8 7 -8 15 0 8 -8 24 -17 36 -38 45 -49 58 -63 78 -8 12 -22 21
-32 21 -9 0 -20 5 -23 10 -3 6 -28 10 -56 10 -27 0 -49 -4 -49 -10z"/>
<path d="M3259 3559 c-10 -6 -14 -30 -15 -76 0 -37 -4 -96 -9 -130 -7 -56 -6
-63 9 -63 27 0 46 25 46 59 0 17 5 31 10 31 6 0 10 34 10 83 0 69 -3 84 -18
94 -12 7 -24 8 -33 2z"/>
<path d="M3400 3541 c0 -17 -4 -33 -10 -36 -5 -3 -10 -19 -10 -35 0 -16 -4
-31 -9 -34 -16 -10 -35 -106 -23 -118 19 -19 52 1 52 33 0 16 5 29 10 29 6 0
10 9 10 19 0 11 5 23 10 26 6 3 10 21 10 39 0 17 5 37 11 43 7 7 9 23 5 37 -5
19 -13 26 -31 26 -21 0 -25 -5 -25 -29z"/>
<path d="M3940 3520 c-8 -5 -29 -10 -47 -10 -17 0 -34 -4 -37 -9 -3 -4 -24
-11 -46 -15 -22 -3 -40 -11 -40 -16 0 -6 -11 -10 -25 -10 -14 0 -25 -4 -25
-10 0 -5 -13 -10 -29 -10 -17 0 -33 -4 -36 -10 -3 -5 -17 -10 -31 -10 -13 0
-24 -4 -24 -10 0 -5 -11 -10 -25 -10 -14 0 -25 -4 -25 -8 0 -5 -17 -17 -37
-26 -45 -20 -110 -76 -113 -97 -7 -45 12 -47 140 -20 25 6 59 13 75 16 17 4
39 10 50 15 61 26 275 38 314 18 28 -14 63 -48 97 -94 18 -24 25 -27 40 -18
16 9 19 26 22 114 2 62 -1 107 -8 114 -5 5 -10 16 -10 23 0 13 -18 38 -52 75
-20 20 -101 25 -128 8z"/>
<path d="M2273 3492 c-28 -10 -55 -20 -59 -24 -13 -14 -54 -9 -54 6 0 19 -37
27 -50 11 -29 -35 28 -110 79 -103 28 4 31 2 31 -24 0 -15 -4 -28 -10 -28 -6
0 -10 -54 -10 -141 0 -134 -1 -140 -19 -134 -11 3 -22 2 -25 -4 -9 -14 4 -41
19 -41 7 0 35 -11 62 -24 26 -13 63 -29 81 -36 17 -7 32 -16 32 -21 0 -5 14
-9 30 -9 17 0 30 -4 30 -10 0 -5 11 -10 25 -10 14 0 25 -3 25 -8 0 -4 19 -13
43 -20 23 -8 58 -20 77 -29 19 -8 44 -19 55 -24 20 -8 49 -12 73 -10 20 2 14
31 -10 51 -13 11 -42 25 -65 32 -24 7 -43 18 -43 26 0 7 20 33 45 56 25 24 45
49 45 55 0 6 5 11 10 11 6 0 10 7 10 15 0 8 4 15 8 15 10 0 28 64 46 158 8 40
14 75 15 77 3 13 15 5 26 -17 27 -51 35 -100 35 -215 0 -67 3 -128 6 -137 3
-9 16 -16 29 -16 27 0 35 17 35 71 0 21 5 39 10 39 6 0 10 28 10 65 0 37 -4
65 -10 65 -5 0 -10 10 -10 21 0 12 -4 38 -10 58 -5 20 -11 47 -14 61 -6 27
-87 120 -105 120 -6 0 -11 4 -11 8 0 5 -12 15 -27 22 -16 8 -34 19 -42 24 -36
27 -92 36 -226 35 -101 -1 -155 -6 -192 -17z m187 -202 c0 -32 -4 -49 -10 -45
-5 3 -10 -3 -10 -15 0 -27 -23 -50 -49 -50 -38 0 -80 97 -51 115 6 3 10 15 10
25 0 22 12 31 54 40 42 8 56 -8 56 -70z m113 -62 c6 -19 -11 -48 -28 -48 -15
0 -21 40 -8 53 11 11 31 8 36 -5z m-63 -113 c0 -33 -4 -45 -15 -45 -8 0 -15
-4 -15 -10 0 -5 -9 -10 -20 -10 -17 0 -20 7 -20 40 0 47 15 69 48 70 20 0 22
-5 22 -45z"/>
<path d="M3263 3235 c-7 -8 -13 -23 -13 -34 0 -29 -20 -112 -33 -136 -23 -43
-45 -231 -28 -248 6 -6 11 -19 11 -29 0 -10 4 -18 10 -18 18 0 159 -133 177
-168 21 -39 -22 -75 -164 -133 -18 -8 -33 -17 -33 -21 0 -5 -11 -8 -24 -8 -31
0 -58 -53 -32 -63 18 -7 66 4 66 14 0 5 9 9 19 9 11 0 23 5 26 10 3 6 15 10
26 10 10 0 19 5 19 10 0 6 9 10 21 10 28 0 129 71 129 91 0 8 4 19 9 25 5 5
11 20 13 34 l3 25 180 2 c260 2 235 -2 235 33 l0 30 -75 0 c-87 0 -87 1 -55
90 11 30 20 72 20 92 0 21 5 38 10 38 6 0 10 7 10 15 0 8 -4 15 -10 15 -6 0
-10 32 -10 75 0 41 3 75 6 75 19 0 84 -109 84 -141 0 -10 5 -21 10 -24 6 -3
10 -24 10 -46 0 -21 5 -39 10 -39 6 0 10 -9 10 -19 0 -26 26 -50 48 -45 23 7
65 68 60 91 -2 10 -11 18 -21 18 -20 0 -47 46 -47 81 0 13 -4 24 -10 24 -5 0
-10 9 -10 20 0 11 -4 20 -8 20 -4 0 -13 15 -20 33 -14 36 -62 92 -109 125 -26
19 -44 22 -117 22 -51 0 -86 -4 -86 -10 0 -5 -11 -10 -25 -10 -14 0 -25 -4
-25 -10 0 -5 -7 -10 -16 -10 -9 0 -30 -11 -48 -25 -82 -66 -100 -81 -117 -99
-11 -11 -19 -26 -19 -33 0 -7 -4 -13 -10 -13 -5 0 -10 -16 -10 -35 0 -32 3
-35 29 -35 27 0 29 -3 35 -52 3 -29 6 -68 6 -85 0 -18 5 -33 10 -33 11 0 14
-33 4 -43 -3 -3 -18 5 -33 19 -14 13 -41 35 -58 47 -18 12 -38 34 -44 49 -12
29 -8 103 11 183 6 28 14 67 17 88 3 20 9 40 14 43 5 3 9 30 9 60 0 45 -3 54
-17 54 -10 -1 -24 -7 -30 -15z m267 -220 c0 -8 5 -15 10 -15 14 0 13 -77 -2
-117 -10 -28 -17 -33 -45 -33 -22 0 -36 6 -43 19 -13 25 -13 78 0 86 6 3 10
13 10 22 0 21 30 52 53 52 9 1 17 -6 17 -14z m93 -145 c-3 -11 -9 -20 -14 -20
-14 0 -21 19 -14 41 9 27 35 7 28 -21z m-48 -75 c0 -44 -3 -50 -22 -53 -18 -3
-23 3 -28 32 -10 49 2 78 28 74 19 -3 22 -9 22 -53z"/>
<path d="M2620 2602 c0 -4 -10 -18 -22 -32 -58 -64 -88 -170 -52 -184 21 -8
44 17 44 48 0 31 20 34 51 9 11 -10 32 -28 46 -40 15 -12 43 -30 64 -40 22
-10 39 -21 39 -25 0 -5 9 -8 20 -8 11 0 20 -4 20 -10 0 -5 7 -10 15 -10 8 0
15 -4 15 -10 0 -5 8 -10 18 -11 9 0 31 -9 47 -19 35 -23 94 -50 106 -50 5 0 9
-4 9 -10 0 -5 13 -10 29 -10 17 0 33 -4 36 -10 3 -5 17 -10 30 -10 13 0 27 -4
30 -10 3 -5 19 -10 35 -10 16 0 32 -4 35 -10 3 -5 16 -10 28 -10 12 0 39 -6
62 -14 22 -8 52 -17 68 -20 23 -6 27 -11 27 -41 0 -23 6 -37 18 -43 27 -14 41
-4 47 36 8 46 26 95 38 103 17 12 -2 39 -27 39 -16 0 -27 -7 -31 -21 -6 -17
-13 -20 -38 -15 -75 13 -97 19 -97 27 0 5 -18 9 -39 9 -22 0 -43 5 -46 10 -3
6 -19 10 -34 10 -15 0 -31 4 -37 8 -5 5 -29 15 -54 22 -55 17 -194 81 -198 92
-2 4 -10 8 -18 8 -8 0 -31 10 -52 23 -20 12 -49 29 -64 36 -16 8 -28 18 -28
23 0 4 -7 8 -15 8 -8 0 -15 5 -15 10 0 6 -5 10 -10 10 -16 0 -70 56 -70 73 0
8 7 17 15 21 20 7 19 42 -1 50 -22 8 -44 8 -44 -2z"/>
<path d="M2804 2163 c-9 -15 -6 -23 20 -45 17 -15 37 -28 44 -28 6 0 12 -3 12
-7 0 -9 48 -33 66 -33 7 0 14 -4 16 -8 2 -5 34 -21 71 -36 75 -30 140 -32 145
-6 3 17 -55 50 -88 50 -11 0 -20 5 -20 10 0 6 -11 10 -24 10 -14 0 -28 5 -31
10 -3 6 -15 10 -26 10 -10 0 -19 5 -19 10 0 6 -7 10 -16 10 -9 0 -38 16 -64
35 -54 39 -70 43 -86 18z"/>
</g>
</svg>
